/* XPM */
static char *_8b9f8db121c4d4ae0638adcac4a1a4aK1V6k5EgrlnIpdtx[] = {
/* columns rows colors chars-per-pixel */
"32 32 10 1 ",
"  c black",
". c #241304",
"X c #2C1806",
"o c #371F08",
"O c #3C240A",
"+ c #44290D",
"@ c #4E2E11",
"# c #573311",
"$ c #70431A",
"% c #4CAF50",
/* pixels */
"##$$$$$$##$$$$$$##$$$$$$##$$$$$$",
"##$$$$$$##$$$$$$##$$$$$###$$$$$$",
"..@@++OO..@@@@OO..@@@@##oo@@@@++",
"..@@@+OO..@@@@OO..@@@@##oo@@@@++",
"..@@@@@@..#@@@OOXX+@@@OOXX@@@+@@",
"..@@@@@@..##@@OOXX++@@OOXX@@++@@",
"..@@@@@@..##         +##oo@@++@@",
"..@@@@@@..# %%%%%%%%% ##oo@@++@@",
"XX@@@@@@.. %%%%%%%%%%% #oo@@oo@@",
"XX@@OO@@.. %%  %%%  %% #oo@@oo@@",
"XX@@OO@@XX %%  %%%  %% #XX@@OO##",
"XX@@OO@@XX %%%%   %%%% #XX@@OO##",
"oo@@++@@.. %%%     %%% #..@@++##",
"oo@@++ @.. %%% %%% %%% #.. @++##",
"ooOOo % XX %%% %%% %%% o. % @@##",
"ooOOo %% X %%%%%%%%%%% o %% @@@#",
"oo#OO %%%    %%%%%%%    %%% @@@@",
"oo##OO %%% @O       OO %%% +@@@@",
"XX##@@# %%%  %%%%%%%  %%% ++@@@#",
"XX#@@@## %%%% %%%%% %%%% X+++@##",
"XX@@@@++o %%% %%%%% %%% ..#+++##",
"XX@@@@+ooo    %%%%%    @..##++##",
"XX@@@@oooo@@O %%%%% @@@@XX##++@@",
"XX@@@@oooo@@O %%%%% @@@@XX##+@@@",
"..@@@@++XX@@+ %%%%% @@@+..##@@@@",
"..@@@@++XX@@+ %%%%% @@++..##@@@@",
"XX@@@O@@XX@@O %%%%% @@++..##@@@@",
"XX@@OO@@XX@@O %%%%% @@++..##@@@@",
"..@@OO@@..@@O %   % @@OO..##O@@@",
"..@@OO@@..@@O % o % @@OO..##OO@@",
"..XXXXXX..XXX % . % XXXX..XXXXXX",
"..XXXXXX..XXX   .   XXXX..XXXXXX"
};
