/* XPM */
static char *_b304f5276d449a2a44ba087ad1ef277S7DYMR1aw3oIQSAN[] = {
/* columns rows colors chars-per-pixel */
"32 32 3 1 ",
"  c None",
". c black",
"X c #4CAF50",
/* pixels */
"                                ",
"                                ",
"                                ",
"                                ",
"                                ",
"                                ",
"            .........           ",
"           .XXXXXXXXX.          ",
"          .XXXXXXXXXXX.         ",
"          .XX..XXX..XX.         ",
"          .XX..XXX..XX.         ",
"          .XXXX...XXXX.         ",
"          .XXX.....XXX.         ",
"      .   .XXX.XXX.XXX.   .     ",
"     .X.  .XXX.XXX.XXX.  .X.    ",
"     .XX. .XXXXXXXXXXX. .XX.    ",
"     .XXX....XXXXXXX....XXX.    ",
"      .XXX.  .......  .XXX.     ",
"       .XXX..XXXXXXX..XXX.      ",
"        .XXXX.XXXXX.XXXX.       ",
"         .XXX.XXXXX.XXX.        ",
"          ....XXXXX....         ",
"             .XXXXX.            ",
"             .XXXXX.            ",
"             .XXXXX.            ",
"             .XXXXX.            ",
"             .XXXXX.            ",
"             .XXXXX.            ",
"             .X...X.            ",
"             .X. .X.            ",
"             .X. .X.            ",
"             ... ...            "
};
