/* XPM */
static char *_38bfe426a00484cbe7d16e33f2a81e8OFFyc3X9fnaNwAzf[] = {
/* columns rows colors chars-per-pixel */
"32 32 8 1 ",
"  c None",
". c #092C33",
"X c #135159",
"o c #188189",
"O c #18ADA8",
"+ c #43E4D0",
"@ c #9AF7E3",
"# c white",
/* pixels */
"                                ",
"                                ",
"                                ",
"            ooooXXXX            ",
"            ooooXXXX            ",
"          oo######@@XX          ",
"          oo######@@XX          ",
"        oo##@@@@@@@@ooXX        ",
"        oo##@@@@@@@@ooXX        ",
"      oo##@@++++++++OOooXX      ",
"      oo##@@++++++++OOooXX      ",
"      oo@@++######@@++OOXX      ",
"      oo@@++######@@++OOXX      ",
"    oo@@++##++@@++OOooOOooXX    ",
"    oo@@++##++@@++OOooOOooXX    ",
"    oo@@++##@@++OOOOooOOooXX    ",
"    oo@@++##@@++OOOOooOOooXX    ",
"    XX@@++@@++OOOO++ooOOoo..    ",
"    XX@@++@@++OOOO++ooOOoo..    ",
"    XX@@++++ooooooooOOOOoo..    ",
"    XX@@++++ooooooooOOOOoo..    ",
"      XX++ooOOOOOOOOooOO..      ",
"      XX++ooOOOOOOOOooOO..      ",
"      XXOOooOOOOOOOOoo++..      ",
"      XXOOooOOOOOOOOoo++..      ",
"        XXOO++++@@@@OO..        ",
"        XXOO++++@@@@OO..        ",
"          XXXXXX......          ",
"          XXXXXX......          ",
"                                ",
"                                ",
"                                "
};
