/* XPM */
static char *_88ced1485ce4b57f9d016efbb42e008ymq3oXkmllKjRhCM[] = {
/* columns rows colors chars-per-pixel */
"32 32 15 1 ",
"  c #291A0C",
". c #301E0E",
"X c #3A2411",
"o c #3E2912",
"O c #022830",
"+ c #462D15",
"@ c #4F3218",
"# c #583618",
"$ c #6F4520",
"% c #0B5059",
"& c #11828A",
"* c #10AFAA",
"= c #41E5D2",
"- c #9BF7E5",
"; c white",
/* pixels */
"##$$$$$$##$$$$$$##$$$$$$##$$$$$$",
"##$$$$$$##$$$$$$##$$$$$###$$$$$$",
"  @@++oo  @@@@oo  @@@@##XX@@@@++",
"  @@@+oo  @@&&&&%%%%@@##XX@@@@++",
"  @@@@@@  #@&&&&%%%%@@oo..@@@+@@",
"  @@@@@@  &&;;;;;;--%%oo..@@++@@",
"  @@@@@@  &&;;;;;;--%%##XX@@++@@",
"  @@@@@@&&;;--------&&%%XX@@++@@",
"..@@@@@@&&;;--------&&%%XX@@XX@@",
"..@@oo&&;;--========**&&%%@@XX@@",
"..@@oo&&;;--========**&&%%@@oo##",
"..@@oo&&--==;;;;;;--==**%%@@oo##",
"XX@@++&&--==;;;;;;--==**%%@@++##",
"XX@@&&--==;;==--==**&&**&&%%++##",
"XXoo&&--==;;==--==**&&**&&%%@@##",
"XXoo&&--==;;--==****&&**&&%%@@@#",
"XX#o&&--==;;--==****&&**&&%%@@@@",
"XX##%%--==--==****==&&**&&OO@@@@",
"..##%%--==--==****==&&**&&OO@@@#",
"..#@%%--====&&&&&&&&****&&OO+@##",
"..@@%%--====&&&&&&&&****&&OO++##",
"..@@@@%%==&&********&&**OO##++##",
"..@@@@%%==&&********&&**OO##++@@",
"..@@@@%%**&&********&&==OO##+@@@",
"  @@@@%%**&&********&&==OO##@@@@",
"  @@@@++%%**====----**OO  ##@@@@",
"..@@@o@@%%**====----**OO  ##@@@@",
"..@@oo@@..%%%%%%OOOOOO++  ##@@@@",
"  @@oo@@  %%%%%%OOOOOOoo  ##o@@@",
"  @@oo@@  @@oo@@XX@@@@oo  ##oo@@",
"  ......  ......  ......  ......",
"  ......  ......  ......  ......"
};
