/* XPM */
static char *ff9be9c1cf014d3eb5e92c6b97ff1ec7G7Th808nPcdFHvSd[] = {
/* columns rows colors chars-per-pixel */
"32 32 10 1 ",
"  c black",
". c #241304",
"X c #2C1806",
"o c #371F08",
"O c #3C240A",
"+ c #44290D",
"@ c #4E2E11",
"# c #573311",
"$ c #70431A",
"% c #765346",
/* pixels */
"##$$$$$$##$$$$$$##$$$$$$##$$$$$$",
"##$$$$$$#%%%%%%%%%%%%%%%%%$$$$$$",
"..@@++OO.%               %@@@@++",
"..@@@+OO.%               %@@@@++",
"..@@@@@@.%               %@@@+@@",
"..@@@@@@.                %@@++@@",
"..@@@@@@.                %@@++@@",
"..@@@@@@.%               %@@++@@",
"XX@@@@@@.%               %@@oo@@",
"XX@@OO@@.%               %@@oo@@",
"XX@@OO@@X%               %@@OO##",
"XX@@OO@@X%               %@@OO##",
"oo@@++@@.%               %@@++##",
"oo@@++@@.%               %@@++##",
"ooOOooooX%               %++@@##",
"ooOOooooX%               %++@@@#",
"oo#OOO##X%               %++@@@@",
"oo##OO##X%               %++@@@@",
"XX##@@##o%               %++@@@#",
"XX#@@@##o%               %+++@##",
"XX@@@@++o%               %#+++##",
"XX@@@@+oo%               %##++##",
"XX@@@@ooo%               %##++@@",
"XX@@@@ooo%               %##+@@@",
"..@@@@++X                %##@@@@",
"..@@@@++X                %##@@@@",
"XX@@@O@@X%               %##@@@@",
"XX@@OO@@X%               %##@@@@",
"..@@OO@@.%               %##O@@@",
"..@@OO@@.%               %##OO@@",
"..XXXXXX.%%%%%%%%%%%%%%%%%XXXXXX",
"..XXXXXX..XXXXXX..XXXXXX..XXXXXX"
};
