/* XPM */
static char *_5447fce668946c598b47b81232aa321jn32zdqNucsg0xBI[] = {
/* columns rows colors chars-per-pixel */
"32 32 5 1 ",
"  c None",
". c black",
"X c #755448",
"o c #9E7668",
"O c #AD938A",
/* pixels */
"                                ",
"         Xooooooooooooooo       ",
"         Xo      o      o       ",
"         Xo      o      o       ",
"         Xo      o      o       ",
"         .o      o      o       ",
"         .ooooooooooooooo       ",
"         Xo      o      o       ",
"         Xo      o      o       ",
"         Xo      o      o       ",
"         Xo      o      o       ",
"         Xooooooooooooooo       ",
"         Xooooooooooooooo       ",
"         Xooooooooooooooo       ",
"         Xooooooooooooooo       ",
"         Xooooooooooo...o       ",
"         Xooooooooooooooo       ",
"         Xooooooooooooooo       ",
"         Xooooooooooooooo       ",
"         Xooooooooooooooo       ",
"         XoOOOOOOoOOOOOOo       ",
"         XoOOOOOOoOOOOOOo       ",
"         XoOOOOOOoOOOOOOo       ",
"         XoOOOOOOoOOOOOOo       ",
"         .ooooooooooooooo       ",
"         .oOOOOOOoOOOOOOo       ",
"         XoOOOOOOoOOOOOOo       ",
"         XoOOOOOOoOOOOOOo       ",
"         XoOOOOOOoOOOOOOo       ",
"         Xooooooooooooooo       ",
"         XXXXXXXXXXXXXXXX       ",
"                                "
};
