/* XPM */
static char *_5e11e21d62144f783e5d2ba0a6d01cfpRB9FZv7hZMYcn7f[] = {
/* columns rows colors chars-per-pixel */
"32 32 4 1 ",
"  c None",
". c black",
"X c #755448",
"o c #795548",
/* pixels */
"                                ",
"         Xoooooooooooooooo      ",
"         X...............o      ",
"         X...............o      ",
"         X...............o      ",
"         ................o      ",
"         ................o      ",
"         X...............o      ",
"         X...............o      ",
"         X...............o      ",
"         X...............o      ",
"         X...............o      ",
"         X...............o      ",
"         X...............o      ",
"         X...............o      ",
"         X...............o      ",
"         X...............o      ",
"         X...............o      ",
"         X...............o      ",
"         X...............o      ",
"         X...............o      ",
"         X...............o      ",
"         X...............o      ",
"         X...............o      ",
"         ................o      ",
"         ................o      ",
"         X...............o      ",
"         X...............o      ",
"         X...............o      ",
"         X...............o      ",
"         XXXXXXXXXXXXXXXXo      ",
"                                "
};
