/* XPM */
static char *c45a7704d4a8478f9dff57017013f55djhBpVPaNhzziwRje[] = {
/* columns rows colors chars-per-pixel */
"32 32 16 1 ",
"  c #291A0C",
". c #301E0E",
"X c #3A2411",
"o c #3E2912",
"O c #462D15",
"+ c #4F3218",
"@ c #583618",
"# c #6F4520",
"$ c black",
"% c black",
"& c black",
"* c black",
"= c black",
"- c black",
"; c black",
": c black",
/* pixels */
"@@######@@######@@######@@######",
"@@######@@######@@#####@@@######",
"  ++OOoo  ++++oo  ++++@@XX++++OO",
"  +++Ooo  ++++oo  ++++@@XX++++OO",
"  ++++++  @+++oo..O+++oo..+++O++",
"  ++++++  @@++oo..OO++oo..++OO++",
"  ++++++  @@++OO  ++OO@@XX++OO++",
"  ++++++  @@++OO  ++OO@@XX++OO++",
"..++++++  @@++OO..++oo@@XX++XX++",
"..++oo++  @@++OO..++oo@@XX++XX++",
"..++oo++..@@++OO..++OO@@..++oo@@",
"..++oo++..@@+OOO..++OO@@..++oo@@",
"XX++OO++  @@OOO@..++oo@@  ++OO@@",
"XX++OO++  @@OO@@..++oo@@  ++OO@@",
"XXooXXXX..++oo@@..XXXXXX  OO++@@",
"XXooXXXX..++oo@@..XXXXXX  OO+++@",
"XX@ooo@@..++oo++XXX+oo++..OO++++",
"XX@@oo@@..++oo++XX++oo++..OO++++",
"..@@++@@XX++OO++XX++OO++..OO+++@",
"..@+++@@XX++OO++XX++OO++..OOO+@@",
"..++++OOXX++OO++XX++OO++  @OOO@@",
"..++++OXXX++OO++XX++O+++  @@OO@@",
"..++++XXXX++oo++..OO++++..@@OO++",
"..++++XXXX++oo++..OO++++..@@O+++",
"  ++++OO..++OO++..OO+++O  @@++++",
"  ++++OO..++OO++..OO++OO  @@++++",
"..+++o++..++oo++XXoo++OO  @@++++",
"..++oo++..++oo++XXo+++OO  @@++++",
"  ++oo++  ++oo++XX++++oo  @@o+++",
"  ++oo++  ++oo++XX++++oo  @@oo++",
"  ......  ......  ......  ......",
"  ......  ......  ......  ......"
};
