/* XPM */
static char *a2c7012310b043a7ee3cb44627a2a75eeJjyLRdBq1Vc0Y2X[] = {
/* columns rows colors chars-per-pixel */
"32 32 15 1 ",
"  c black",
". c #241304",
"X c #2C1806",
"o c #371F08",
"O c #3C240A",
"+ c #44290D",
"@ c #4E2E11",
"# c #573311",
"$ c #70431A",
"% c #5D4037",
"& c #3F51B5",
"* c #00BCD4",
"= c #03A9F4",
"- c #FFECB3",
"; c white",
/* pixels */
"##$$$$$$##$$$$$$##$$$$$$##$$$$$$",
"##$$$$$$##$$$$$$##$$$$$###$$$$$$",
"..@@++OO..@@@@OO..@@@@##oo@@@@++",
"..@@@+OO..@@@@OO..@@@@##oo@@@@++",
"..@@@@@@..#@@@OOXX+@@@OOXX@@@+@@",
"..@@@@@@..##@@OOXX++@@OOXX@@++@@",
"..@@@@@@..##         +##oo@@++@@",
"..@@@@@@..# %%%%%%%%% ##oo@@++@@",
"XX@@@@@@.. %%%%%%%%%%% #oo@@oo@@",
"XX@@OO@@.. %---------% #oo@@oo@@",
"XX@@OO@@XX ----------- #XX@@OO##",
"XX@@OO@@XX --;*---*;-- #XX@@OO##",
"oo@@++@@.. ----%%%---- #..@@++##",
"oo@@++@@.. ---%---%--- #..@@++##",
"ooOOooooXX ---%---%--- o..++@@##",
"ooOOooooXX ---%%%%%--- o..++@@@#",
"oo#OOO##XX   -------   @XX++@@@@",
"oo##OO##XX@@O       OO@@XX++@@@@",
"XX##@@##oo@  =======  @@XX++@@@#",
"XX#@@@##oo == ===== == @XX+++@##",
"XX@@@@++oo == ===== == @..#+++##",
"XX@@@@+ooo == ===== == @..##++##",
"XX@@@@oooo == ===== == @XX##++@@",
"XX@@@@oooo -- ===== -- @XX##+@@@",
"..@@@@++XX -- ===== -- +..##@@@@",
"..@@@@++XX -- &&&&= -- +..##@@@@",
"XX@@@O@@XX@   &&&&&   ++..##@@@@",
"XX@@OO@@XX@@O &&&&& @@++..##@@@@",
"..@@OO@@..@@O &   & @@OO..##O@@@",
"..@@OO@@..@@O & o & @@OO..##OO@@",
"..XXXXXX..XXX & . & XXXX..XXXXXX",
"..XXXXXX..XXX   .   XXXX..XXXXXX"
};
