/* XPM */
static char *_91517ab0ba84ccd88fc7341b4ac62b4gVljVhQxxKK252G1[] = {
/* columns rows colors chars-per-pixel */
"32 32 2 1 ",
"  c #FFD740",
". c #00E5FF",
/* pixels */
"................................",
"................................",
"................................",
"................................",
"................................",
"................................",
"................................",
"................................",
"................................",
".........      .................",
"........ .....       ...........",
"......  ............   .........",
"..... ................  ........",
".... ................... .......",
"...  ...................  ......",
"... .....................  .....",
"... ...................... .....",
"... ...................... .....",
"... ......................  ....",
"... ....................... ....",
"... ....................... ....",
"... ...................... .....",
".... ..................... .....",
".... ..................... .....",
".....  .................. ......",
".......    .............  ......",
"...........              .......",
"................................",
"................................",
"................................",
"................................",
"................................"
};
