/* XPM */
static char *b7939863d5de44f1abd44ed2a39a6953VH5goPTNCqcIgjXB[] = {
/* columns rows colors chars-per-pixel */
"32 32 3 1 ",
"  c None",
". c black",
"X c #4CAF50",
/* pixels */
"                                ",
"                                ",
"                                ",
"                                ",
"                                ",
"                                ",
"            .........           ",
"           .XXXXXXXXX.          ",
"          .XXXXXXXXXXX.         ",
"          .XX..XXX..XX.         ",
"          .XX..XXX..XX.         ",
"          .XXXX...XXXX.         ",
"          .XXX.....XXX.         ",
"          .XXX.XXX.XXX.         ",
"          .XXX.XXX.XXX.         ",
"          .XXXXXXXXXXX.         ",
"          ...XXXXXXX...         ",
"             .......            ",
"           ..XXXXXXX..          ",
"          .XX.XXXXX.XX.         ",
"          .XX.XXXXX.XX.         ",
"          .XX.XXXXX.XX.         ",
"          .XX.XXXXX.XX.         ",
"          .XX.XXXXX.XX.         ",
"          .XX.XXXXX.XX.         ",
"          .XX.XXXXX.XX.         ",
"           ...XXXXX...          ",
"             .XXXXX.            ",
"             .X...X.            ",
"             .X. .X.            ",
"             .X. .X.            ",
"             ... ...            "
};
