/* XPM */
static char *b6058cb25d3c4a4bd6fe0a8195f146a7ZC8F3UfLKRdSTVTX[] = {
/* columns rows colors chars-per-pixel */
"32 32 10 1 ",
"  c black",
". c #291A0C",
"X c #301E0E",
"o c #3A2411",
"O c #3E2912",
"+ c #462D15",
"@ c #4F3218",
"# c #583618",
"$ c #6F4520",
"% c #4CAF50",
/* pixels */
"##$$$$$$##$$$$$$##$$$$$$##$$$$$$",
"##$$$$$$##$$$$$$##$$$$$###$$$$$$",
"..@@++OO..@@@@OO..@@@@##oo@@@@++",
"..@@@+OO..@@@@OO..@@@@##oo@@@@++",
"..@@@@@@..#@@@OOXX+@@@OOXX@@@+@@",
"..@@@@@@..##@@OOXX++@@OOXX@@++@@",
"..@@@@@@..##         +##oo@@++@@",
"..@@@@@@..# %%%%%%%%% ##oo@@++@@",
"XX@@@@@@.. %%%%%%%%%%% #oo@@oo@@",
"XX@@OO@@.. %%  %%%  %% #oo@@oo@@",
"XX@@OO@@XX %%  %%%  %% #XX@@OO##",
"XX@@OO@@XX %%%%   %%%% #XX@@OO##",
"oo@@++@@.. %%%     %%% #..@@++##",
"oo@@++@@.. %%% %%% %%% #..@@++##",
"ooOOooooXX %%% %%% %%% o..++@@##",
"ooOOooooXX %%%%%%%%%%% o..++@@@#",
"oo#OOO##XX   %%%%%%%   @XX++@@@@",
"oo##OO##XX@@O       OO@@XX++@@@@",
"XX##@@##oo@  %%%%%%%  @@XX++@@@#",
"XX#@@@##oo %% %%%%% %% @XX+++@##",
"XX@@@@++oo %% %%%%% %% @..#+++##",
"XX@@@@+ooo %% %%%%% %% @..##++##",
"XX@@@@oooo %% %%%%% %% @XX##++@@",
"XX@@@@oooo %% %%%%% %% @XX##+@@@",
"..@@@@++XX %% %%%%% %% +..##@@@@",
"..@@@@++XX %% %%%%% %% +..##@@@@",
"XX@@@O@@XX@   %%%%%   ++..##@@@@",
"XX@@OO@@XX@@O %%%%% @@++..##@@@@",
"..@@OO@@..@@O %   % @@OO..##O@@@",
"..@@OO@@..@@O % o % @@OO..##OO@@",
"..XXXXXX..XXX % . % XXXX..XXXXXX",
"..XXXXXX..XXX   .   XXXX..XXXXXX"
};
