/* XPM */
static char *cc5ea5235c634c99ebdd7f4405e6cc840L402SxEkKKGShoN[] = {
/* columns rows colors chars-per-pixel */
"64 64 8 1 ",
"  c None",
". c #092C33",
"X c #135159",
"o c #188189",
"O c #18ADA8",
"+ c #43E4D0",
"@ c #9AF7E3",
"# c white",
/* pixels */
"                                                                ",
"                                                                ",
"                                                                ",
"                                                                ",
"                                                                ",
"                                                                ",
"                                                                ",
"                                                                ",
"                                                                ",
"                                                                ",
"                                                                ",
"                                                                ",
"                        ooooooooXXXXXXXX                        ",
"                        ooooooooXXXXXXXX                        ",
"                        ooooooooXXXXXXXX                        ",
"                        ooooooooXXXXXXXX                        ",
"                    oooo############@@@@XXXX                    ",
"                    oooo############@@@@XXXX                    ",
"                    oooo############@@@@XXXX                    ",
"                    oooo############@@@@XXXX                    ",
"                oooo####@@@@@@@@@@@@@@@@ooooXXXX                ",
"                oooo####@@@@@@@@@@@@@@@@ooooXXXX                ",
"                oooo####@@@@@@@@@@@@@@@@ooooXXXX                ",
"                oooo####@@@@@@@@@@@@@@@@ooooXXXX                ",
"            oooo####@@@@++++++++++++++++OOOOooooXXXX            ",
"            oooo####@@@@++++++++++++++++OOOOooooXXXX            ",
"            oooo####@@@@++++++++++++++++OOOOooooXXXX            ",
"            oooo####@@@@++++++++++++++++OOOOooooXXXX            ",
"            oooo@@@@++++############@@@@++++OOOOXXXX            ",
"            oooo@@@@++++############@@@@++++OOOOXXXX            ",
"            oooo@@@@++++############@@@@++++OOOOXXXX            ",
"            oooo@@@@++++############@@@@++++OOOOXXXX            ",
"        oooo@@@@++++####++++@@@@++++OOOOooooOOOOooooXXXX        ",
"        oooo@@@@++++####++++@@@@++++OOOOooooOOOOooooXXXX        ",
"        oooo@@@@++++####++++@@@@++++OOOOooooOOOOooooXXXX        ",
"        oooo@@@@++++####++++@@@@++++OOOOooooOOOOooooXXXX        ",
"        oooo@@@@++++####@@@@++++OOOOOOOOooooOOOOooooXXXX        ",
"        oooo@@@@++++####@@@@++++OOOOOOOOooooOOOOooooXXXX        ",
"        oooo@@@@++++####@@@@++++OOOOOOOOooooOOOOooooXXXX        ",
"        oooo@@@@++++####@@@@++++OOOOOOOOooooOOOOooooXXXX        ",
"        XXXX@@@@++++@@@@++++OOOOOOOO++++ooooOOOOoooo....        ",
"        XXXX@@@@++++@@@@++++OOOOOOOO++++ooooOOOOoooo....        ",
"        XXXX@@@@++++@@@@++++OOOOOOOO++++ooooOOOOoooo....        ",
"        XXXX@@@@++++@@@@++++OOOOOOOO++++ooooOOOOoooo....        ",
"        XXXX@@@@++++++++ooooooooooooooooOOOOOOOOoooo....        ",
"        XXXX@@@@++++++++ooooooooooooooooOOOOOOOOoooo....        ",
"        XXXX@@@@++++++++ooooooooooooooooOOOOOOOOoooo....        ",
"        XXXX@@@@++++++++ooooooooooooooooOOOOOOOOoooo....        ",
"            XXXX++++ooooOOOOOOOOOOOOOOOOooooOOOO....            ",
"            XXXX++++ooooOOOOOOOOOOOOOOOOooooOOOO....            ",
"            XXXX++++ooooOOOOOOOOOOOOOOOOooooOOOO....            ",
"            XXXX++++ooooOOOOOOOOOOOOOOOOooooOOOO....            ",
"            XXXXOOOOooooOOOOOOOOOOOOOOOOoooo++++....            ",
"            XXXXOOOOooooOOOOOOOOOOOOOOOOoooo++++....            ",
"            XXXXOOOOooooOOOOOOOOOOOOOOOOoooo++++....            ",
"            XXXXOOOOooooOOOOOOOOOOOOOOOOoooo++++....            ",
"                XXXXOOOO++++++++@@@@@@@@OOOO....                ",
"                XXXXOOOO++++++++@@@@@@@@OOOO....                ",
"                XXXXOOOO++++++++@@@@@@@@OOOO....                ",
"                XXXXOOOO++++++++@@@@@@@@OOOO....                ",
"                    XXXXXXXXXXXX............                    ",
"                    XXXXXXXXXXXX............                    ",
"                    XXXXXXXXXXXX............                    ",
"                    XXXXXXXXXXXX............                    "
};
