/* XPM */
static char *_44b14a1bb5949efc2d85e74c68e1507YaESgEbZaGYAYcQG[] = {
/* columns rows colors chars-per-pixel */
"32 32 15 1 ",
"  c #291A0C",
". c #301E0E",
"X c #3A2411",
"o c #3E2912",
"O c #022830",
"+ c #462D15",
"@ c #4F3218",
"# c #583618",
"$ c #6F4520",
"% c #0B5059",
"& c #11828A",
"* c #10AFAA",
"= c #41E5D2",
"- c #9BF7E5",
"; c white",
/* pixels */
"##$$$$$$##$$$$$$##$$$$$$##$$$$$$",
"##$$$$$$##$$$$$$##$$$$$###$$$$$$",
"  @@++oo  @@@@oo  @@@@##XX@@@@++",
"  @@@+oo  @@@@oo  @@@@##XX@@@@++",
"  @@@@@@  #@@@oo..+@@@oo..@@@+@@",
"  @@@@@@  ##@@oo..++@@oo..@@++@@",
"  @@@@@@  ##&&&&%%%%++##XX@@++@@",
"  @@@@@@  ##&&&&%%%%++##XX@@++@@",
"..@@@@@@  &&;;;;;;--%%##XX@@XX@@",
"..@@oo@@  &&;;;;;;--%%##XX@@XX@@",
"..@@oo@@&&;;--------&&%%..@@oo##",
"..@@oo@@&&;;--------&&%%..@@oo##",
"XX@@++&&;;--========**&&%%@@++##",
"XX@@++&&;;--========**&&%%@@++##",
"XXooXX&&--==;;;;;;--==**%%++@@##",
"XXooXX&&--==;;;;;;--==**%%++@@@#",
"XX#o&&--==;;==--==**&&**&&%%@@@@",
"XX##&&--==;;==--==**&&**&&%%@@@@",
"..##&&--==;;--==****&&**&&%%@@@#",
"..#@&&--==;;--==****&&**&&%%+@##",
"..@@%%--==--==****==&&**&&OO++##",
"..@@%%--==--==****==&&**&&OO++##",
"..@@%%--====&&&&&&&&****&&OO++@@",
"..@@%%--====&&&&&&&&****&&OO+@@@",
"  @@@@%%==&&********&&**OO##@@@@",
"  @@@@%%==&&********&&**OO##@@@@",
"..@@@o%%**&&********&&==OO##@@@@",
"..@@oo%%**&&********&&==OO##@@@@",
"  @@oo@@%%**====----**OO  ##o@@@",
"  @@oo@@%%**====----**OO  ##oo@@",
"  ......  %%%%%%OOOOOO..  ......",
"  ......  %%%%%%OOOOOO..  ......"
};
