/* XPM */
static char *ec4f6ea5b95045d8d84d58283bcb3515cqKfPiHZcYH16aNP[] = {
/* columns rows colors chars-per-pixel */
"32 32 12 1 ",
"  c black",
". c #241304",
"X c #2C1806",
"o c #371F08",
"O c #3C240A",
"+ c #44290D",
"@ c #4E2E11",
"# c #573311",
"$ c #70431A",
"% c #765346",
"& c #9F7768",
"* c #AF948B",
/* pixels */
"##$$$$$$##$$$$$$##$$$$$$##$$$$$$",
"##$$$$$$#%&&&&&&&&&&&&&&&#$$$$$$",
"..@@++OO.%&@@@OO.&@@@@##&o@@@@++",
"..@@@+OO.%&@@@OO.&@@@@##&o@@@@++",
"..@@@@@@.%&@@@OOX&+@@@OO&X@@@+@@",
"..@@@@@@. &#@@OOX&++@@OO&X@@++@@",
"..@@@@@@. &&&&&&&&&&&&&&&o@@++@@",
"..@@@@@@.%&#@@++.&@@++##&o@@++@@",
"XX@@@@@@.%&#@@++X&@@OO##&o@@oo@@",
"XX@@OO@@.%&#@@++X&@@OO##&o@@oo@@",
"XX@@OO@@X%&#@@++X&@@++##&X@@OO##",
"XX@@OO@@X%&&&&&&&&&&&&&&&X@@OO##",
"oo@@++@@.%&&&&&&&&&&&&&&&.@@++##",
"oo@@++@@.%&&&&&&&&&&&&&&&.@@++##",
"ooOOooooX%&&&&&&&&&&&&&&&.++@@##",
"ooOOooooX%&&&&&&&&&&&   &.++@@@#",
"oo#OOO##X%&&&&&&&&&&&&&&&X++@@@@",
"oo##OO##X%&&&&&&&&&&&&&&&X++@@@@",
"XX##@@##o%&&&&&&&&&&&&&&&X++@@@#",
"XX#@@@##o%&&&&&&&&&&&&&&&X+++@##",
"XX@@@@++o%&******&******&.#+++##",
"XX@@@@+oo%&******&******&.##++##",
"XX@@@@ooo%&******&******&X##++@@",
"XX@@@@ooo%&******&******&X##+@@@",
"..@@@@++X &&&&&&&&&&&&&&&.##@@@@",
"..@@@@++X &******&******&.##@@@@",
"XX@@@O@@X%&******&******&.##@@@@",
"XX@@OO@@X%&******&******&.##@@@@",
"..@@OO@@.%&******&******&.##O@@@",
"..@@OO@@.%&&&&&&&&&&&&&&&.##OO@@",
"..XXXXXX.%%%%%%%%%%%%%%%%.XXXXXX",
"..XXXXXX..XXXXXX..XXXXXX..XXXXXX"
};
