/* XPM */
static char *af504f2c4b8848eabccd80a03f126401yVHjirbBreT2YQUJ[] = {
/* columns rows colors chars-per-pixel */
"32 32 8 1 ",
"  c None",
". c black",
"X c #795548",
"o c #3F51B5",
"O c #00BCD4",
"+ c #2196F3",
"@ c #FFE082",
"# c white",
/* pixels */
"                                ",
"                                ",
"                                ",
"                                ",
"                                ",
"                                ",
"            .........           ",
"           .XXXXXXXXX.          ",
"          .XXXXXXXXXXX.         ",
"          .X@@@@@@@@@X.         ",
"          .@@@@@@@@@@@.         ",
"          .@@#O@@@O#@@.         ",
"          .@@@@XXX@@@@.         ",
"          .@@@X@@@X@@@.         ",
"          .@@@X@@@X@@@.         ",
"          .@@@XXXXX@@@.         ",
"          ...@@@@@@@...         ",
"             .......            ",
"           ..+++++++..          ",
"          .++.+++++.++.         ",
"          .++.+++++.++.         ",
"          .++.+++++.++.         ",
"          .++.+++++.++.         ",
"          .@@.+++++.@@.         ",
"          .@@.+++++.@@.         ",
"          .@@.oooo+.@@.         ",
"           ...ooooo...          ",
"             .ooooo.            ",
"             .o...o.            ",
"             .o. .o.            ",
"             .o. .o.            ",
"             ... ...            "
};
