/* XPM */
static char *_6a0c9c2a4bc4d78893c7d1abc04706erG3SL6IGYj1wVqNl[] = {
/* columns rows colors chars-per-pixel */
"32 32 22 1 ",
"  c #733F31",
". c #7C4536",
"X c #8F503F",
"o c #9B5643",
"O c #976A5E",
"+ c #9B685B",
"@ c #9E685A",
"# c #9A695C",
"$ c #B1624D",
"% c #A76553",
"& c #A16657",
"* c #A46655",
"= c #AB6350",
"- c #A96452",
"; c #A06758",
": c #8B6E67",
"> c #926B61",
", c #946B60",
"< c #906C63",
"1 c #C66851",
"2 c #A2867D",
"3 c #A9948D",
/* pixels */
"$$$$oo::111111$$$$$$oo2211$$$$$$",
"$$$ooo::111111$$$$$ooo2211$$$$$$",
"ooooXX22..XXooooooooXX22..oooooo",
"ooooXX22..XXXoooooooXX22..oooooo",
"..    33    XXXX..    22  XX....",
"..    33    XXXX..    22  XX....",
"::::223322::::::::22222222::::::",
":::>@23322O,<::::>@2223322O,<:::",
"111@-$$$oo*;#o221@-$$$$$oo*;#:::",
"1111$$$ooo$$oo2211$$$$$$oo$$oo::",
"..ooooooooXX..22..XXXXXXXXXX..22",
"..ooooooooX...22..XXXXXXXXX...22",
"..Xoooo.....  33    .XXXXXX.  22",
"..XXoo......  33    ..XXXX..  22",
"22::::::::2222332222::::::::2223",
"2&+,<:::::222233222@>::::::>@233",
"$=%;#o22111111$$oo$-oo22111@-$$$",
"$$$ooo22111111$ooooooo221111$$$$",
"ooooXX22XXoooooooooo..22XXoooooo",
"ooooXX22XXooooooooo...22XXXooooo",
"....  22....XXXX....  33..XXXXXX",
"....  22....XXXX....  33..XXXXXX",
"::22222222::::::::::223322::::::",
":>@2223322O,<::::<,+&23322O,<:::",
"oo-$$$$$oo*;#::::#;%=$$$oo*;#o22",
"ooo$$$$ooooooo::11$$$$$ooooooo22",
"..ooooooooooXX22XXoooooooooo..22",
"...oooooooooXX22XXooooooooo...22",
"  ..........  33  ..........  33",
"  ..........  33  .......... 333",
"22::::::::::22332222::::::223333",
"22::::::::::22332222::::::223333"
};
